HIERARCHY
ROOT Hips
{
	OFFSET 49.598701 0.118866 51.613800
	CHANNELS 6 Xposition Yposition Zposition Xrotation Yrotation Zrotation
	JOINT spine
	{
		OFFSET 0.000000 -0.477352 8.301041
		CHANNELS 3 Xrotation Yrotation Zrotation
		JOINT spine1
		{
			OFFSET 0.000000 -0.000002 10.456497
			CHANNELS 3 Xrotation Yrotation Zrotation
			JOINT spine2
			{
				OFFSET 0.000000 -0.000002 10.019203
				CHANNELS 3 Xrotation Yrotation Zrotation
				JOINT Neck
				{
					OFFSET 0.000000 -1.226414 25.723503
					CHANNELS 3 Xrotation Yrotation Zrotation
					JOINT Head
					{
						OFFSET 0.000000 -0.000001 7.771751
						CHANNELS 3 Xrotation Yrotation Zrotation
						End Site
						{
							OFFSET 0.000000 6.203937 18.812004
						}
					}
				}
				JOINT RightShoulder
				{
					OFFSET -4.218800 0.587437 10.820000
					CHANNELS 3 Xrotation Yrotation Zrotation
					JOINT RightArm
					{
						OFFSET 0.000000 -0.000002 14.191399
						CHANNELS 3 Xrotation Yrotation Zrotation
						JOINT RightArmRoll
						{
							OFFSET 0.000000 -0.000001 7.164078
							CHANNELS 3 Xrotation Yrotation Zrotation
							JOINT RightForeArm
							{
								OFFSET 0.000000 -0.000003 20.866508
								CHANNELS 3 Xrotation Yrotation Zrotation
								JOINT RightForeArmRoll
								{
									OFFSET 0.000000 -0.000001 8.039215
									CHANNELS 3 Xrotation Yrotation Zrotation
									JOINT RightHand
									{
										OFFSET 0.000000 -0.000003 16.132996
										CHANNELS 3 Xrotation Yrotation Zrotation
										End Site
										{
											OFFSET 0.000000 -0.000000 0.100006
										}
									}
								}
							}
						}
					}
				}
				JOINT LeftShoulder
				{
					OFFSET 4.218800 0.587437 10.820000
					CHANNELS 3 Xrotation Yrotation Zrotation
					JOINT LeftArm
					{
						OFFSET 0.000000 -0.000002 14.191399
						CHANNELS 3 Xrotation Yrotation Zrotation
						JOINT LeftArmRoll
						{
							OFFSET 0.000000 -0.000001 7.164078
							CHANNELS 3 Xrotation Yrotation Zrotation
							JOINT LeftForeArm
							{
								OFFSET 0.000000 -0.000003 20.866508
								CHANNELS 3 Xrotation Yrotation Zrotation
								JOINT LeftForeArmRoll
								{
									OFFSET 0.000000 -0.000001 8.039215
									CHANNELS 3 Xrotation Yrotation Zrotation
									JOINT LeftHand
									{
										OFFSET 0.000000 -0.000003 16.132996
										CHANNELS 3 Xrotation Yrotation Zrotation
										End Site
										{
											OFFSET 0.000000 -0.000000 0.100006
										}
									}
								}
							}
						}
					}
				}
			}
		}
	}
	JOINT RightUpLeg
	{
		OFFSET -7.357731 1.131810 -1.349209
		CHANNELS 3 Xrotation Yrotation Zrotation
		JOINT RightUpLegRoll
		{
			OFFSET 0.000000 -0.000003 18.916798
			CHANNELS 3 Xrotation Yrotation Zrotation
			JOINT RightLeg
			{
				OFFSET 0.000000 0.000004 -23.425598
				CHANNELS 3 Xrotation Yrotation Zrotation
				JOINT RightLegRoll
				{
					OFFSET 0.000000 -0.000004 23.502296
					CHANNELS 3 Xrotation Yrotation Zrotation
					JOINT RightFoot
					{
						OFFSET 0.000000 -0.000003 19.561699
						CHANNELS 3 Xrotation Yrotation Zrotation
						JOINT RightToeBase
						{
							OFFSET 0.000000 -0.000003 16.352600
							CHANNELS 3 Xrotation Yrotation Zrotation
							End Site
							{
								OFFSET 0.006931 0.912836 7.919441
							}
						}
					}
				}
			}
		}
	}
	JOINT LeftUpLeg
	{
		OFFSET 7.357731 1.131810 -1.349209
		CHANNELS 3 Xrotation Yrotation Zrotation
		JOINT LeftUpLegRoll
		{
			OFFSET 0.000000 -0.000003 18.916897
			CHANNELS 3 Xrotation Yrotation Zrotation
			JOINT LeftLeg
			{
				OFFSET 0.000000 -0.000004 23.425499
				CHANNELS 3 Xrotation Yrotation Zrotation
				JOINT LeftLegRoll
				{
					OFFSET 0.000000 -0.000004 23.719498
					CHANNELS 3 Xrotation Yrotation Zrotation
					JOINT LeftFoot
					{
						OFFSET 0.000000 -0.000003 19.344398
						CHANNELS 3 Xrotation Yrotation Zrotation
						JOINT LeftToeBase
						{
							OFFSET 0.000000 -0.000003 16.352600
							CHANNELS 3 Xrotation Yrotation Zrotation
							End Site
							{
								OFFSET -0.031063 0.912836 7.919434
							}
						}
					}
				}
			}
		}
	}
}
MOTION
Frames: 8
Frame Time: 0.041667
47.450298 -33.403812 98.867889 -3.685116 0.285801 0.456229 -1.188963 -0.124661 0.132626 1.618065 -0.234111 0.279405 3.263137 -0.230800 0.282193 21.374607 0.176736 -1.440291 -9.118398 1.011695 -1.450558 -2.342127 -74.273007 -4.339862 -80.856667 -121.533941 -57.500876 0.000001 -0.000002 0.000001 0.055970 -7.799058 0.040465 -0.000001 0.000009 -3.053261 -5.000194 -7.998994 0.000116 4.302335 64.561243 -4.175541 -58.076334 111.092330 41.072417 0.000001 0.000007 -0.000000 3.488249 8.692972 0.341127 0.000002 0.000018 3.008279 -5.000242 7.998911 -0.000139 1.516817 -176.285297 0.963007 -179.999991 0.000005 -1.122004 173.955452 -3.511416 -0.655582 -0.000004 0.000004 0.076613 68.919525 6.908001 2.093148 25.456936 -7.345455 -0.000000 0.137777 173.677026 -0.611603 -0.000005 -0.000004 -1.233180 -12.616343 3.073338 1.142299 -0.000005 0.000005 -0.182405 69.058253 -6.929043 -2.030390 25.456894 7.351321 0.000008 
47.455002 -33.388412 98.873093 -3.680066 0.285132 0.463455 -1.183935 -0.124550 0.132573 1.628634 -0.235152 0.278623 3.273698 -0.231851 0.281423 21.370006 0.176202 -1.440626 -9.127535 1.016457 -1.450958 -2.355476 -74.260159 -4.353140 -80.840275 -121.536072 -57.473781 0.000003 -0.000000 0.000004 0.055970 -7.787356 0.041333 -0.000005 0.000008 -3.053261 -5.000195 -7.998992 0.000118 4.311833 64.558156 -4.186720 -58.051055 111.104420 41.049454 0.000002 0.000007 -0.000000 3.484561 8.691869 0.341126 0.000004 0.000018 3.008279 -5.000242 7.998911 -0.000140 1.485496 -176.281240 0.961433 -179.999991 0.000005 -1.122004 173.930084 -3.510260 -0.657031 -0.000004 0.000004 0.076558 68.924928 6.908028 2.093114 25.456941 -7.345456 0.000000 0.105690 173.674020 -0.616204 -0.000005 -0.000004 -1.233230 -12.634757 3.080406 1.143779 -0.000005 0.000004 -0.182548 69.046109 -6.929069 -2.030255 25.456890 7.351320 0.000009 
47.454895 -33.363911 98.868500 -3.674914 0.284262 0.470932 -1.179013 -0.124348 0.132496 1.639014 -0.236058 0.277780 3.284078 -0.232767 0.280589 21.364511 0.174817 -1.440755 -9.135365 1.022013 -1.451202 -2.369506 -74.247694 -4.367187 -80.824333 -121.538066 -57.447533 0.000000 -0.000001 0.000004 0.055967 -7.776135 0.042204 -0.000001 0.000009 -3.053259 -5.000198 -7.998993 0.000118 4.321684 64.554659 -4.198351 -58.025968 111.116598 41.026071 0.000001 0.000007 -0.000001 3.480565 8.690160 0.341162 0.000006 0.000018 3.008280 -5.000240 7.998911 -0.000139 1.454580 -176.277197 0.960911 -179.999991 0.000005 -1.122004 173.905741 -3.511093 -0.658627 -0.000004 0.000004 0.076476 68.930617 6.908038 2.093161 25.456940 -7.345455 -0.000001 0.074296 173.672012 -0.620600 -0.000005 -0.000005 -1.233290 -12.651766 3.087502 1.145222 -0.000006 0.000005 -0.182676 69.033439 -6.929061 -2.030147 25.456894 7.351320 0.000009 
47.452499 -33.343616 98.868698 -3.669672 0.283253 0.478587 -1.174150 -0.124082 0.132401 1.649264 -0.236870 0.276894 3.294338 -0.233590 0.279712 21.358405 0.172837 -1.440729 -9.142267 1.028115 -1.451324 -2.383995 -74.235434 -4.381755 -80.808842 -121.539910 -57.421926 0.000004 -0.000001 0.000003 0.055966 -7.765246 0.043080 -0.000001 0.000009 -3.053260 -5.000193 -7.998994 0.000117 4.331755 64.550950 -4.210275 -57.998729 111.129316 40.999969 -0.000001 0.000008 0.000000 3.476361 8.688040 0.341228 0.000002 0.000018 3.008279 -5.000238 7.998911 -0.000139 1.423946 -176.272142 0.961146 -179.999991 0.000006 -1.122004 173.882095 -3.511930 -0.659183 -0.000004 0.000004 0.076375 68.936628 6.908027 2.093085 25.456938 -7.345456 -0.000000 0.043389 173.671001 -0.624849 -0.000005 -0.000005 -1.233370 -12.667878 3.094606 1.146639 -0.000004 0.000005 -0.182796 69.020441 -6.929065 -2.029963 25.456890 7.351321 0.000009 
47.453598 -33.325516 98.860901 -3.664393 0.282163 0.486342 -1.169341 -0.123778 0.132296 1.659444 -0.237628 0.275983 3.304518 -0.234360 0.278810 21.351902 0.170515 -1.440609 -9.148651 1.034534 -1.451393 -2.398736 -74.223263 -4.396605 -80.793672 -121.541714 -57.396887 0.000002 -0.000003 0.000002 0.055970 -7.754548 0.043963 -0.000001 0.000008 -3.053260 -5.000198 -7.998994 0.000118 4.341955 64.547043 -4.222364 -57.971497 111.142033 40.973564 0.000000 0.000006 -0.000000 3.472036 8.685683 0.341306 0.000002 0.000018 3.008281 -5.000237 7.998911 -0.000139 1.393470 -176.267102 0.961799 -179.999991 0.000005 -1.122004 173.858886 -3.513775 -0.659823 -0.000004 0.000004 0.076263 68.942645 6.908018 2.093206 25.456945 -7.345454 -0.000001 0.012759 173.668993 -0.629018 -0.000005 -0.000005 -1.233460 -12.683287 3.101727 1.148038 -0.000004 0.000005 -0.182909 69.007239 -6.929056 -2.029887 25.456892 7.351320 0.000008 
47.460800 -33.306015 98.864189 -3.659103 0.281056 0.494123 -1.164546 -0.123467 0.132187 1.669605 -0.238374 0.275067 3.314678 -0.235117 0.277901 21.345301 0.168109 -1.440476 -9.154876 1.041031 -1.451441 -2.413528 -74.211187 -4.411524 -80.778462 -121.543435 -57.371813 -0.000002 -0.000002 0.000003 0.055965 -7.743898 0.044845 -0.000003 0.000008 -3.053262 -5.000195 -7.998994 0.000117 4.352176 64.543143 -4.234488 -57.944470 111.154847 40.947360 -0.000001 0.000006 -0.000001 3.467673 8.683257 0.341389 0.000001 0.000018 3.008280 -5.000239 7.998911 -0.000140 1.363028 -176.262047 0.962552 -179.999991 0.000005 -1.122004 173.835773 -3.515604 -0.661453 -0.000004 0.000004 0.076148 68.948670 6.908043 2.093234 25.456940 -7.345456 0.000000 -0.017810 173.668010 -0.633163 -0.000005 -0.000005 -1.233550 -12.698696 3.108847 1.149444 -0.000004 0.000005 -0.183021 68.993940 -6.929072 -2.029723 25.456894 7.351322 0.000008 
47.462799 -33.279812 98.863792 -3.653836 0.279990 0.501853 -1.159711 -0.123172 0.132084 1.679805 -0.239147 0.274163 3.324879 -0.235900 0.277005 21.338894 0.165873 -1.440391 -9.161387 1.047370 -1.451527 -2.428160 -74.199022 -4.426254 -80.763128 -121.545265 -57.346494 0.000002 -0.000001 0.000003 0.055968 -7.733156 0.045726 -0.000004 0.000008 -3.053262 -5.000198 -7.998993 0.000115 4.362324 64.539236 -4.246513 -57.919506 111.167039 40.923509 0.000001 0.000007 -0.000001 3.463374 8.680961 0.341464 0.000004 0.000019 3.008280 -5.000242 7.998911 -0.000139 1.332516 -176.256009 0.963113 -179.999991 0.000005 -1.122004 173.812441 -3.516442 -0.661993 -0.000004 0.000004 0.076040 68.954673 6.908029 2.093258 25.456936 -7.345456 0.000000 -0.048507 173.666002 -0.637348 -0.000005 -0.000004 -1.233630 -12.714311 3.115954 1.150855 -0.000005 0.000005 -0.183136 68.980847 -6.929055 -2.029539 25.456890 7.351319 0.000009 
47.462399 -33.260010 98.854095 -3.648611 0.279025 0.509457 -1.154843 -0.122924 0.131994 1.690095 -0.239988 0.273291 3.335168 -0.236751 0.276142 21.332895 0.164062 -1.440403 -9.168544 1.053322 -1.451683 -2.442435 -74.186749 -4.440589 -80.747487 -121.547137 -57.320703 0.000008 -0.000000 0.000004 0.055972 -7.722178 0.046601 -0.000005 0.000008 -3.053261 -5.000193 -7.998994 0.000117 4.372314 64.535527 -4.258334 -57.892397 111.179770 40.897626 0.000002 0.000007 -0.000000 3.459230 8.678962 0.341520 0.000004 0.000019 3.008280 -5.000242 7.998910 -0.000140 1.301795 -176.251966 0.963094 -179.999991 0.000005 -1.122004 173.788604 -3.517287 -0.662567 -0.000003 0.000004 0.075944 68.960595 6.908048 2.093191 25.456936 -7.345456 0.000000 -0.079556 173.663994 -0.641632 -0.000005 -0.000004 -1.233710 -12.730624 3.123061 1.152297 -0.000005 0.000005 -0.183258 68.967965 -6.929050 -2.029344 25.456890 7.351320 0.000009 
